<svg xmlns="http://www.w3.org/2000/svg" viewBox="0 0 500 500" width="100%" height="100%">
  <circle cx="250" cy="250" r="240" fill="#755833" />

  <g fill="#ffffff" transform="translate(130, 80)">
    <path d="M 15,60 L 0,20 L 30,35 L 55,5 L 80,35 L 110,20 L 95,60 Z" />
    <circle cx="0" cy="20" r="7" />
    <circle cx="30" cy="35" r="5" />
    <circle cx="55" cy="5" r="8" />
    <circle cx="80" cy="35" r="5" />
    <circle cx="110" cy="20" r="7" />
  </g>

  <g stroke="#ffffff" fill="none" stroke-width="8" stroke-linecap="round" stroke-linejoin="round">
    <path d="M 300,150 A 85,85 0 1,0 290,270" />
    <path d="M 210,150 L 210,255 L 290,255" />
    <path d="M 210,202 L 260,202" />
    <path d="M 210,150 L 280,150" />
  </g>

  <text x="65" y="340" font-family="'Segoe UI', 'Helvetica Neue', sans-serif" font-size="52" font-weight="400" fill="#ffffff">Elite's C</text>

  <g fill="#ffffff" transform="translate(265, 305)">
    <path d="M 0,5 L 0,20 A 10,10 0 0,0 15,35 L 30,35 A 10,10 0 0,0 45,20 L 45,5 Z" />
    <path d="M 40,10 A 10,10 0 0,1 40,25" fill="none" stroke="#ffffff" stroke-width="4" stroke-linecap="round"/>
    <path d="M 12,-2 Q 18,-12 12,-22" fill="none" stroke="#ffffff" stroke-width="3" stroke-linecap="round"/>
    <path d="M 28,-2 Q 34,-12 28,-22" fill="none" stroke="#ffffff" stroke-width="3" stroke-linecap="round"/>
  </g>

  <text x="320" y="340" font-family="'Segoe UI', 'Helvetica Neue', sans-serif" font-size="52" font-weight="400" fill="#ffffff">ffee</text>

  <line x1="85" y1="365" x2="415" y2="365" stroke="#ffffff" stroke-width="3" stroke-linecap="round"/>

  <text x="250" y="395" font-family="'Comic Sans MS', 'Segoe UI', cursive, sans-serif" font-size="16" fill="#ffffff" text-anchor="middle" letter-spacing="0.5">Stay Positive &amp; Keep Productive</text>
</svg>
